<svg width="52" height="49" viewBox="0 0 52 49" fill="none" xmlns="http://www.w3.org/2000/svg">
<mask id="mask0_490_10200" style="mask-type:luminance" maskUnits="userSpaceOnUse" x="5" y="4" width="42" height="42">
<path d="M5.00525 4.0415H46.5365V45.5675H5.00525V4.0415Z" fill="white"/>
</mask>
<g mask="url(#mask0_490_10200)">
<path d="M5.00525 4.0415H46.5365V45.5675H5.00525V4.0415Z" fill="#CFCFCF"/>
</g>
<path d="M13.2552 44.4792H38.9532L46.8959 20.0365L26.1042 4.93229L5.31253 20.0365L13.2552 44.4792ZM39.5209 46.0417H12.6823C12.3438 46.0417 12.0469 45.8229 11.9375 45.5L3.64586 19.9792C3.5417 19.6563 3.65628 19.3021 3.93232 19.1042L25.6407 3.32812C25.9167 3.13021 26.2865 3.13021 26.5625 3.32812L48.2761 19.1042C48.5521 19.3021 48.6667 19.6563 48.5625 19.9792L40.2657 45.5C40.1615 45.8229 39.8594 46.0417 39.5209 46.0417Z" fill="#E6E6E6"/>
<path d="M26.8855 25.8748H25.3177V3.96338H26.8855V25.8748Z" fill="#E6E6E6"/>
<path d="M26.3177 26.6302L25.8906 25.125L47.6042 18.9844L48.0313 20.4896L26.3177 26.6302Z" fill="#E6E6E6"/>
<path d="M38.8802 45.7082L25.4584 26.3228L26.7448 25.4321L40.1667 44.8175L38.8802 45.7082Z" fill="#E6E6E6"/>
<path d="M13.3281 45.7082L12.0417 44.8175L25.4584 25.4321L26.7448 26.3228L13.3281 45.7082Z" fill="#E6E6E6"/>
<path d="M25.8907 26.6302L4.17712 20.4896L4.60421 18.9844L26.3177 25.125L25.8907 26.6302Z" fill="#E6E6E6"/>
<path d="M12.5417 22.0884L16.4896 39.8801L35.6875 39.7082L43.2813 21.0623L26.1771 10.4738L12.5417 22.0884ZM15.8594 41.453C15.4948 41.453 15.1771 41.1978 15.099 40.8384L10.9115 21.9686C10.849 21.6821 10.9479 21.3905 11.1667 21.203L25.5938 8.91131C25.8542 8.68735 26.224 8.6613 26.5156 8.83839L44.6667 20.078C44.9896 20.2811 45.125 20.6873 44.9792 21.0415L36.9427 40.7811C36.8229 41.0728 36.5417 41.2655 36.224 41.2655L15.8698 41.453C15.8646 41.453 15.8646 41.453 15.8594 41.453Z" fill="#E6E6E6"/>
<path d="M23.5625 29.6408L32.25 34.37L34.3958 23.5887L26.099 16.5887L18.0261 23.3596L23.5625 29.6408ZM32.8125 36.3544C32.6823 36.3544 32.5521 36.3179 32.4375 36.2554L22.6927 30.9481C22.6146 30.9064 22.5417 30.8491 22.4792 30.7814L16.3177 23.7971C16.1771 23.6356 16.1094 23.4273 16.125 23.2189C16.1406 23.0106 16.2396 22.8127 16.4011 22.6773L25.599 14.9637C25.8906 14.7189 26.3177 14.7241 26.6094 14.9689L35.7604 22.6929C35.974 22.8752 36.0781 23.1616 36.0208 23.4429L33.5781 35.7241C33.5313 35.9689 33.3698 36.1721 33.1458 36.2762C33.0417 36.3283 32.9271 36.3544 32.8125 36.3544Z" fill="#E6E6E6"/>
<path d="M18.4167 23.276C18.4167 22.4427 17.7396 21.7656 16.9063 21.7656C16.073 21.7656 15.3959 22.4427 15.3959 23.276C15.3959 24.1094 16.073 24.7865 16.9063 24.7865C17.7396 24.7865 18.4167 24.1094 18.4167 23.276Z" fill="#E6E6E6"/>
<path d="M27.6146 15.5675C27.6146 14.729 26.9375 14.0571 26.1042 14.0571C25.2708 14.0571 24.5938 14.729 24.5938 15.5675C24.5938 16.4009 25.2708 17.078 26.1042 17.078C26.9375 17.078 27.6146 16.4009 27.6146 15.5675Z" fill="#E6E6E6"/>
<path d="M36.7656 23.4894C36.7656 22.6561 36.0886 21.979 35.2552 21.979C34.4167 21.979 33.7448 22.6561 33.7448 23.4894C33.7448 24.328 34.4167 24.9998 35.2552 24.9998C36.0886 24.9998 36.7656 24.328 36.7656 23.4894Z" fill="#E6E6E6"/>
<path d="M34.323 35.5675C34.323 34.7342 33.6459 34.0571 32.8125 34.0571C31.9792 34.0571 31.3021 34.7342 31.3021 35.5675C31.3021 36.4009 31.9792 37.078 32.8125 37.078C33.6459 37.078 34.323 36.4009 34.323 35.5675Z" fill="#E6E6E6"/>
<path d="M24.4167 30.4948C24.4167 29.6615 23.7396 28.9844 22.9063 28.9844C22.073 28.9844 21.3959 29.6615 21.3959 30.4948C21.3959 31.3281 22.073 32.0052 22.9063 32.0052C23.7396 32.0052 24.4167 31.3281 24.4167 30.4948Z" fill="#E6E6E6"/>
<path d="M17.3698 40.672C17.3698 39.8387 16.698 39.1616 15.8594 39.1616C15.0261 39.1616 14.349 39.8387 14.349 40.672C14.349 41.5054 15.0261 42.1825 15.8594 42.1825C16.698 42.1825 17.3698 41.5054 17.3698 40.672Z" fill="#E6E6E6"/>
<path d="M13.073 21.7658C13.073 20.9325 12.3959 20.2554 11.5625 20.2554C10.7292 20.2554 10.0521 20.9325 10.0521 21.7658C10.0521 22.5991 10.7292 23.2762 11.5625 23.2762C12.3959 23.2762 13.073 22.5991 13.073 21.7658Z" fill="#E6E6E6"/>
<path d="M27.6146 9.88542C27.6146 9.04688 26.9375 8.375 26.1042 8.375C25.2708 8.375 24.5938 9.04688 24.5938 9.88542C24.5938 10.7188 25.2708 11.3958 26.1042 11.3958C26.9375 11.3958 27.6146 10.7188 27.6146 9.88542Z" fill="#E6E6E6"/>
<path d="M45.7656 20.7448C45.7656 19.9115 45.0886 19.2344 44.2552 19.2344C43.4219 19.2344 42.7448 19.9115 42.7448 20.7448C42.7448 21.5781 43.4219 22.2552 44.2552 22.2552C45.0886 22.2552 45.7656 21.5781 45.7656 20.7448Z" fill="#E6E6E6"/>
<path d="M37.4583 40.0939C37.4583 39.2606 36.7813 38.5835 35.9479 38.5835C35.1146 38.5835 34.4375 39.2606 34.4375 40.0939C34.4375 40.9325 35.1146 41.6043 35.9479 41.6043C36.7813 41.6043 37.4583 40.9325 37.4583 40.0939Z" fill="#E6E6E6"/>
<mask id="mask1_490_10200" style="mask-type:luminance" maskUnits="userSpaceOnUse" x="48" y="16" width="4" height="5">
<path d="M48.1823 16.9321H52V20.9321H48.1823V16.9321Z" fill="white"/>
</mask>
<g mask="url(#mask1_490_10200)">
<path d="M50.6875 20.5413H50.0052C49.2865 20.5413 48.7031 19.9528 48.7031 19.234C48.7031 18.5153 49.2865 17.9268 50.0052 17.9268H50.6875C51.4063 17.9268 51.9896 18.5153 51.9896 19.234C51.9896 19.9528 51.4063 20.5413 50.6875 20.5413Z" fill="#E6E6E6"/>
</g>
<mask id="mask2_490_10200" style="mask-type:luminance" maskUnits="userSpaceOnUse" x="24" y="0" width="5" height="4">
<path d="M24.1823 0H28.1823V3.59896H24.1823V0Z" fill="white"/>
</mask>
<g mask="url(#mask2_490_10200)">
<path d="M26.4219 2.61963H25.7396C25.0209 2.61963 24.4323 2.0363 24.4323 1.31234C24.4323 0.593588 25.0209 0.0102539 25.7396 0.0102539H26.4219C27.1406 0.0102539 27.724 0.593588 27.724 1.31234C27.724 2.0363 27.1406 2.61963 26.4219 2.61963Z" fill="#E6E6E6"/>
</g>
<mask id="mask3_490_10200" style="mask-type:luminance" maskUnits="userSpaceOnUse" x="0" y="16" width="5" height="5">
<path d="M0 16.9321H4.18229V20.9321H0V16.9321Z" fill="white"/>
</mask>
<g mask="url(#mask3_490_10200)">
<path d="M1.9844 20.5413H1.3021C0.583353 20.5413 -0.00518799 19.9528 -0.00518799 19.234C-0.00518799 18.5153 0.583353 17.9268 1.3021 17.9268H1.9844C2.70315 17.9268 3.28648 18.5153 3.28648 19.234C3.28648 19.9528 2.70315 20.5413 1.9844 20.5413Z" fill="#E6E6E6"/>
</g>
<mask id="mask4_490_10200" style="mask-type:luminance" maskUnits="userSpaceOnUse" x="9" y="46" width="5" height="3">
<path d="M9.51562 46.2656H13.5156V49H9.51562V46.2656Z" fill="white"/>
</mask>
<g mask="url(#mask4_490_10200)">
<path d="M12.0156 49.0054H11.3333C10.6146 49.0054 10.0312 48.422 10.0312 47.7033C10.0312 46.9793 10.6146 46.396 11.3333 46.396H12.0156C12.7344 46.396 13.3229 46.9793 13.3229 47.7033C13.3229 48.422 12.7344 49.0054 12.0156 49.0054Z" fill="#E6E6E6"/>
</g>
<mask id="mask5_490_10200" style="mask-type:luminance" maskUnits="userSpaceOnUse" x="37" y="46" width="6" height="3">
<path d="M37.5156 46.2656H42.849V49H37.5156V46.2656Z" fill="white"/>
</mask>
<g mask="url(#mask5_490_10200)">
<path d="M40.7084 49.0054H40.0313C39.3073 49.0054 38.724 48.422 38.724 47.7033C38.724 46.9793 39.3073 46.396 40.0313 46.396H40.7084C41.4323 46.396 42.0157 46.9793 42.0157 47.7033C42.0157 48.422 41.4323 49.0054 40.7084 49.0054Z" fill="#E6E6E6"/>
</g>
</svg>
