<svg width="92" height="227" viewBox="0 0 92 227" fill="none" xmlns="http://www.w3.org/2000/svg">
<mask id="mask0_452_9923" style="mask-type:luminance" maskUnits="userSpaceOnUse" x="25" y="24" width="42" height="42">
<path d="M25.0052 24.0415H66.5365V65.5675H25.0052V24.0415Z" fill="white"/>
</mask>
<g mask="url(#mask0_452_9923)">
<path d="M25.0052 24.0415H66.5365V65.5675H25.0052V24.0415Z" fill="#CBB171"/>
</g>
<path d="M33.2552 64.4792H58.9532L66.8959 40.0365L46.1042 24.9323L25.3125 40.0365L33.2552 64.4792ZM59.5209 66.0417H32.6823C32.3438 66.0417 32.0469 65.8229 31.9375 65.5L23.6459 39.9792C23.5417 39.6563 23.6563 39.3021 23.9323 39.1042L45.6407 23.3281C45.9167 23.1302 46.2865 23.1302 46.5625 23.3281L68.2761 39.1042C68.5521 39.3021 68.6667 39.6563 68.5625 39.9792L60.2657 65.5C60.1615 65.8229 59.8594 66.0417 59.5209 66.0417Z" fill="#AFCEE4"/>
<path d="M46.8855 45.8748H45.3177V23.9634H46.8855V45.8748Z" fill="#AFCEE4"/>
<path d="M46.3177 46.6302L45.8906 45.125L67.6042 38.9844L68.0313 40.4896L46.3177 46.6302Z" fill="#AFCEE4"/>
<path d="M58.8802 65.7082L45.4584 46.3228L46.7448 45.4321L60.1667 64.8175L58.8802 65.7082Z" fill="#AFCEE4"/>
<path d="M33.3281 65.7082L32.0417 64.8175L45.4584 45.4321L46.7448 46.3228L33.3281 65.7082Z" fill="#AFCEE4"/>
<path d="M45.8907 46.6302L24.1771 40.4896L24.6042 38.9844L46.3177 45.125L45.8907 46.6302Z" fill="#AFCEE4"/>
<path d="M32.5417 42.0884L36.4896 59.8801L55.6875 59.7082L63.2813 41.0623L46.1771 30.4738L32.5417 42.0884ZM35.8594 61.453C35.4948 61.453 35.1771 61.1978 35.099 60.8384L30.9115 41.9686C30.849 41.6821 30.9479 41.3905 31.1667 41.203L45.5938 28.9113C45.8542 28.6873 46.224 28.6613 46.5156 28.8384L64.6667 40.078C64.9896 40.2811 65.125 40.6873 64.9792 41.0415L56.9427 60.7811C56.8229 61.0728 56.5417 61.2655 56.224 61.2655L35.8698 61.453C35.8646 61.453 35.8646 61.453 35.8594 61.453Z" fill="#AFCEE4"/>
<path d="M43.5625 49.6408L52.25 54.37L54.3958 43.5887L46.099 36.5887L38.0261 43.3596L43.5625 49.6408ZM52.8125 56.3544C52.6823 56.3544 52.5521 56.3179 52.4375 56.2554L42.6927 50.9481C42.6146 50.9064 42.5417 50.8491 42.4792 50.7814L36.3177 43.7971C36.1771 43.6356 36.1094 43.4273 36.125 43.2189C36.1406 43.0106 36.2396 42.8127 36.4011 42.6773L45.599 34.9637C45.8906 34.7189 46.3177 34.7241 46.6094 34.9689L55.7604 42.6929C55.974 42.8752 56.0781 43.1616 56.0208 43.4429L53.5781 55.7241C53.5313 55.9689 53.3698 56.1721 53.1458 56.2762C53.0417 56.3283 52.9271 56.3544 52.8125 56.3544Z" fill="#AFCEE4"/>
<path d="M38.4167 43.276C38.4167 42.4427 37.7396 41.7656 36.9063 41.7656C36.073 41.7656 35.3959 42.4427 35.3959 43.276C35.3959 44.1094 36.073 44.7865 36.9063 44.7865C37.7396 44.7865 38.4167 44.1094 38.4167 43.276Z" fill="#AFCEE4"/>
<path d="M47.6146 35.5675C47.6146 34.729 46.9375 34.0571 46.1042 34.0571C45.2708 34.0571 44.5938 34.729 44.5938 35.5675C44.5938 36.4009 45.2708 37.078 46.1042 37.078C46.9375 37.078 47.6146 36.4009 47.6146 35.5675Z" fill="#AFCEE4"/>
<path d="M56.7656 43.4894C56.7656 42.6561 56.0886 41.979 55.2552 41.979C54.4167 41.979 53.7448 42.6561 53.7448 43.4894C53.7448 44.328 54.4167 44.9998 55.2552 44.9998C56.0886 44.9998 56.7656 44.328 56.7656 43.4894Z" fill="#AFCEE4"/>
<path d="M54.323 55.5675C54.323 54.7342 53.6459 54.0571 52.8125 54.0571C51.9792 54.0571 51.3021 54.7342 51.3021 55.5675C51.3021 56.4009 51.9792 57.078 52.8125 57.078C53.6459 57.078 54.323 56.4009 54.323 55.5675Z" fill="#AFCEE4"/>
<path d="M44.4167 50.4948C44.4167 49.6615 43.7396 48.9844 42.9063 48.9844C42.073 48.9844 41.3959 49.6615 41.3959 50.4948C41.3959 51.3281 42.073 52.0052 42.9063 52.0052C43.7396 52.0052 44.4167 51.3281 44.4167 50.4948Z" fill="#AFCEE4"/>
<path d="M37.3698 60.672C37.3698 59.8387 36.698 59.1616 35.8594 59.1616C35.0261 59.1616 34.349 59.8387 34.349 60.672C34.349 61.5054 35.0261 62.1825 35.8594 62.1825C36.698 62.1825 37.3698 61.5054 37.3698 60.672Z" fill="#AFCEE4"/>
<path d="M33.073 41.7658C33.073 40.9325 32.3959 40.2554 31.5625 40.2554C30.7292 40.2554 30.0521 40.9325 30.0521 41.7658C30.0521 42.5991 30.7292 43.2762 31.5625 43.2762C32.3959 43.2762 33.073 42.5991 33.073 41.7658Z" fill="#AFCEE4"/>
<path d="M47.6146 29.8854C47.6146 29.0469 46.9375 28.375 46.1042 28.375C45.2708 28.375 44.5938 29.0469 44.5938 29.8854C44.5938 30.7188 45.2708 31.3958 46.1042 31.3958C46.9375 31.3958 47.6146 30.7188 47.6146 29.8854Z" fill="#AFCEE4"/>
<path d="M65.7656 40.7448C65.7656 39.9115 65.0886 39.2344 64.2552 39.2344C63.4219 39.2344 62.7448 39.9115 62.7448 40.7448C62.7448 41.5781 63.4219 42.2552 64.2552 42.2552C65.0886 42.2552 65.7656 41.5781 65.7656 40.7448Z" fill="#AFCEE4"/>
<path d="M57.4583 60.0939C57.4583 59.2606 56.7813 58.5835 55.9479 58.5835C55.1146 58.5835 54.4375 59.2606 54.4375 60.0939C54.4375 60.9325 55.1146 61.6043 55.9479 61.6043C56.7813 61.6043 57.4583 60.9325 57.4583 60.0939Z" fill="#AFCEE4"/>
<mask id="mask1_452_9923" style="mask-type:luminance" maskUnits="userSpaceOnUse" x="68" y="36" width="4" height="5">
<path d="M68.1823 36.9321H72V40.9321H68.1823V36.9321Z" fill="white"/>
</mask>
<g mask="url(#mask1_452_9923)">
<path d="M70.6875 40.5413H70.0052C69.2865 40.5413 68.7031 39.9528 68.7031 39.234C68.7031 38.5153 69.2865 37.9268 70.0052 37.9268H70.6875C71.4063 37.9268 71.9896 38.5153 71.9896 39.234C71.9896 39.9528 71.4063 40.5413 70.6875 40.5413Z" fill="#AFCEE4"/>
</g>
<mask id="mask2_452_9923" style="mask-type:luminance" maskUnits="userSpaceOnUse" x="44" y="20" width="5" height="4">
<path d="M44.1823 20H48.1823V23.599H44.1823V20Z" fill="white"/>
</mask>
<g mask="url(#mask2_452_9923)">
<path d="M46.4219 22.6196H45.7396C45.0209 22.6196 44.4323 22.0363 44.4323 21.3123C44.4323 20.5936 45.0209 20.0103 45.7396 20.0103H46.4219C47.1406 20.0103 47.724 20.5936 47.724 21.3123C47.724 22.0363 47.1406 22.6196 46.4219 22.6196Z" fill="#AFCEE4"/>
</g>
<mask id="mask3_452_9923" style="mask-type:luminance" maskUnits="userSpaceOnUse" x="20" y="36" width="5" height="5">
<path d="M20 36.9321H24.1823V40.9321H20V36.9321Z" fill="white"/>
</mask>
<g mask="url(#mask3_452_9923)">
<path d="M21.9844 40.5413H21.3021C20.5834 40.5413 19.9948 39.9528 19.9948 39.234C19.9948 38.5153 20.5834 37.9268 21.3021 37.9268H21.9844C22.7031 37.9268 23.2865 38.5153 23.2865 39.234C23.2865 39.9528 22.7031 40.5413 21.9844 40.5413Z" fill="#AFCEE4"/>
</g>
<mask id="mask4_452_9923" style="mask-type:luminance" maskUnits="userSpaceOnUse" x="29" y="66" width="5" height="3">
<path d="M29.5156 66.2656H33.5156V69H29.5156V66.2656Z" fill="white"/>
</mask>
<g mask="url(#mask4_452_9923)">
<path d="M32.0156 69.0054H31.3333C30.6146 69.0054 30.0312 68.422 30.0312 67.7033C30.0312 66.9793 30.6146 66.396 31.3333 66.396H32.0156C32.7344 66.396 33.3229 66.9793 33.3229 67.7033C33.3229 68.422 32.7344 69.0054 32.0156 69.0054Z" fill="#AFCEE4"/>
</g>
<mask id="mask5_452_9923" style="mask-type:luminance" maskUnits="userSpaceOnUse" x="57" y="66" width="6" height="3">
<path d="M57.5156 66.2656H62.849V69H57.5156V66.2656Z" fill="white"/>
</mask>
<g mask="url(#mask5_452_9923)">
<path d="M60.7084 69.0054H60.0313C59.3073 69.0054 58.724 68.422 58.724 67.7033C58.724 66.9793 59.3073 66.396 60.0313 66.396H60.7084C61.4323 66.396 62.0157 66.9793 62.0157 67.7033C62.0157 68.422 61.4323 69.0054 60.7084 69.0054Z" fill="#AFCEE4"/>
</g>
<mask id="mask6_452_9923" style="mask-type:luminance" maskUnits="userSpaceOnUse" x="25" y="93" width="42" height="42">
<path d="M25.0052 93.0415H66.5365V134.568H25.0052V93.0415Z" fill="white"/>
</mask>
<g mask="url(#mask6_452_9923)">
<path d="M25.0052 93.0415H66.5365V134.568H25.0052V93.0415Z" fill="#AFCEE4"/>
</g>
<path d="M33.2552 133.479H58.9532L66.8959 109.036L46.1042 93.9323L25.3125 109.036L33.2552 133.479ZM59.5209 135.042H32.6823C32.3438 135.042 32.0469 134.823 31.9375 134.5L23.6459 108.979C23.5417 108.656 23.6563 108.302 23.9323 108.104L45.6407 92.3281C45.9167 92.1302 46.2865 92.1302 46.5625 92.3281L68.2761 108.104C68.5521 108.302 68.6667 108.656 68.5625 108.979L60.2657 134.5C60.1615 134.823 59.8594 135.042 59.5209 135.042Z" fill="#726D5F"/>
<path d="M46.8855 114.875H45.3177V92.9634H46.8855V114.875Z" fill="#726D5F"/>
<path d="M46.3177 115.63L45.8906 114.125L67.6042 107.984L68.0313 109.49L46.3177 115.63Z" fill="#726D5F"/>
<path d="M58.8802 134.708L45.4584 115.323L46.7448 114.432L60.1667 133.818L58.8802 134.708Z" fill="#726D5F"/>
<path d="M33.3281 134.708L32.0417 133.818L45.4584 114.432L46.7448 115.323L33.3281 134.708Z" fill="#726D5F"/>
<path d="M45.8907 115.63L24.1771 109.49L24.6042 107.984L46.3177 114.125L45.8907 115.63Z" fill="#726D5F"/>
<path d="M32.5417 111.088L36.4896 128.88L55.6875 128.708L63.2813 110.062L46.1771 99.4738L32.5417 111.088ZM35.8594 130.453C35.4948 130.453 35.1771 130.198 35.099 129.838L30.9115 110.969C30.849 110.682 30.9479 110.39 31.1667 110.203L45.5938 97.9113C45.8542 97.6873 46.224 97.6613 46.5156 97.8384L64.6667 109.078C64.9896 109.281 65.125 109.687 64.9792 110.042L56.9427 129.781C56.8229 130.073 56.5417 130.265 56.224 130.265L35.8698 130.453C35.8646 130.453 35.8646 130.453 35.8594 130.453Z" fill="#87A5BA"/>
<path d="M43.5625 118.641L52.25 123.37L54.3958 112.589L46.099 105.589L38.0261 112.36L43.5625 118.641ZM52.8125 125.354C52.6823 125.354 52.5521 125.318 52.4375 125.255L42.6927 119.948C42.6146 119.906 42.5417 119.849 42.4792 119.781L36.3177 112.797C36.1771 112.636 36.1094 112.427 36.125 112.219C36.1406 112.011 36.2396 111.813 36.4011 111.677L45.599 103.964C45.8906 103.719 46.3177 103.724 46.6094 103.969L55.7604 111.693C55.974 111.875 56.0781 112.162 56.0208 112.443L53.5781 124.724C53.5313 124.969 53.3698 125.172 53.1458 125.276C53.0417 125.328 52.9271 125.354 52.8125 125.354Z" fill="#CDEAFF"/>
<path d="M38.4167 112.276C38.4167 111.443 37.7396 110.766 36.9063 110.766C36.073 110.766 35.3959 111.443 35.3959 112.276C35.3959 113.109 36.073 113.786 36.9063 113.786C37.7396 113.786 38.4167 113.109 38.4167 112.276Z" fill="#CDEAFF"/>
<path d="M47.6146 104.568C47.6146 103.729 46.9375 103.057 46.1042 103.057C45.2708 103.057 44.5938 103.729 44.5938 104.568C44.5938 105.401 45.2708 106.078 46.1042 106.078C46.9375 106.078 47.6146 105.401 47.6146 104.568Z" fill="#CDEAFF"/>
<path d="M56.7656 112.489C56.7656 111.656 56.0886 110.979 55.2552 110.979C54.4167 110.979 53.7448 111.656 53.7448 112.489C53.7448 113.328 54.4167 114 55.2552 114C56.0886 114 56.7656 113.328 56.7656 112.489Z" fill="#CDEAFF"/>
<path d="M54.323 124.568C54.323 123.734 53.6459 123.057 52.8125 123.057C51.9792 123.057 51.3021 123.734 51.3021 124.568C51.3021 125.401 51.9792 126.078 52.8125 126.078C53.6459 126.078 54.323 125.401 54.323 124.568Z" fill="#CDEAFF"/>
<path d="M44.4167 119.495C44.4167 118.661 43.7396 117.984 42.9063 117.984C42.073 117.984 41.3959 118.661 41.3959 119.495C41.3959 120.328 42.073 121.005 42.9063 121.005C43.7396 121.005 44.4167 120.328 44.4167 119.495Z" fill="#CDEAFF"/>
<path d="M37.3698 129.672C37.3698 128.839 36.698 128.162 35.8594 128.162C35.0261 128.162 34.349 128.839 34.349 129.672C34.349 130.505 35.0261 131.182 35.8594 131.182C36.698 131.182 37.3698 130.505 37.3698 129.672Z" fill="#87A5BA"/>
<path d="M33.073 110.766C33.073 109.932 32.3959 109.255 31.5625 109.255C30.7292 109.255 30.0521 109.932 30.0521 110.766C30.0521 111.599 30.7292 112.276 31.5625 112.276C32.3959 112.276 33.073 111.599 33.073 110.766Z" fill="#87A5BA"/>
<path d="M47.6146 98.8854C47.6146 98.0469 46.9375 97.375 46.1042 97.375C45.2708 97.375 44.5938 98.0469 44.5938 98.8854C44.5938 99.7188 45.2708 100.396 46.1042 100.396C46.9375 100.396 47.6146 99.7188 47.6146 98.8854Z" fill="#87A5BA"/>
<path d="M65.7656 109.745C65.7656 108.911 65.0886 108.234 64.2552 108.234C63.4219 108.234 62.7448 108.911 62.7448 109.745C62.7448 110.578 63.4219 111.255 64.2552 111.255C65.0886 111.255 65.7656 110.578 65.7656 109.745Z" fill="#87A5BA"/>
<path d="M57.4583 129.094C57.4583 128.261 56.7813 127.583 55.9479 127.583C55.1146 127.583 54.4375 128.261 54.4375 129.094C54.4375 129.932 55.1146 130.604 55.9479 130.604C56.7813 130.604 57.4583 129.932 57.4583 129.094Z" fill="#87A5BA"/>
<mask id="mask7_452_9923" style="mask-type:luminance" maskUnits="userSpaceOnUse" x="68" y="105" width="4" height="5">
<path d="M68.1823 105.932H72V109.932H68.1823V105.932Z" fill="white"/>
</mask>
<g mask="url(#mask7_452_9923)">
<path d="M70.6875 109.541H70.0052C69.2865 109.541 68.7031 108.953 68.7031 108.234C68.7031 107.515 69.2865 106.927 70.0052 106.927H70.6875C71.4063 106.927 71.9896 107.515 71.9896 108.234C71.9896 108.953 71.4063 109.541 70.6875 109.541Z" fill="#726D5F"/>
</g>
<mask id="mask8_452_9923" style="mask-type:luminance" maskUnits="userSpaceOnUse" x="44" y="89" width="5" height="4">
<path d="M44.1823 89H48.1823V92.599H44.1823V89Z" fill="white"/>
</mask>
<g mask="url(#mask8_452_9923)">
<path d="M46.4219 91.6196H45.7396C45.0209 91.6196 44.4323 91.0363 44.4323 90.3123C44.4323 89.5936 45.0209 89.0103 45.7396 89.0103H46.4219C47.1406 89.0103 47.724 89.5936 47.724 90.3123C47.724 91.0363 47.1406 91.6196 46.4219 91.6196Z" fill="#726D5F"/>
</g>
<mask id="mask9_452_9923" style="mask-type:luminance" maskUnits="userSpaceOnUse" x="20" y="105" width="5" height="5">
<path d="M20 105.932H24.1823V109.932H20V105.932Z" fill="white"/>
</mask>
<g mask="url(#mask9_452_9923)">
<path d="M21.9844 109.541H21.3021C20.5834 109.541 19.9948 108.953 19.9948 108.234C19.9948 107.515 20.5834 106.927 21.3021 106.927H21.9844C22.7031 106.927 23.2865 107.515 23.2865 108.234C23.2865 108.953 22.7031 109.541 21.9844 109.541Z" fill="#726D5F"/>
</g>
<mask id="mask10_452_9923" style="mask-type:luminance" maskUnits="userSpaceOnUse" x="29" y="135" width="5" height="3">
<path d="M29.5156 135.266H33.5156V138H29.5156V135.266Z" fill="white"/>
</mask>
<g mask="url(#mask10_452_9923)">
<path d="M32.0156 138.005H31.3333C30.6146 138.005 30.0312 137.422 30.0312 136.703C30.0312 135.979 30.6146 135.396 31.3333 135.396H32.0156C32.7344 135.396 33.3229 135.979 33.3229 136.703C33.3229 137.422 32.7344 138.005 32.0156 138.005Z" fill="#726D5F"/>
</g>
<mask id="mask11_452_9923" style="mask-type:luminance" maskUnits="userSpaceOnUse" x="57" y="135" width="6" height="3">
<path d="M57.5156 135.266H62.849V138H57.5156V135.266Z" fill="white"/>
</mask>
<g mask="url(#mask11_452_9923)">
<path d="M60.7084 138.005H60.0313C59.3073 138.005 58.724 137.422 58.724 136.703C58.724 135.979 59.3073 135.396 60.0313 135.396H60.7084C61.4323 135.396 62.0157 135.979 62.0157 136.703C62.0157 137.422 61.4323 138.005 60.7084 138.005Z" fill="#726D5F"/>
</g>
<mask id="mask12_452_9923" style="mask-type:luminance" maskUnits="userSpaceOnUse" x="25" y="162" width="42" height="42">
<path d="M25.0052 162.042H66.5365V203.568H25.0052V162.042Z" fill="white"/>
</mask>
<g mask="url(#mask12_452_9923)">
<path d="M25.0052 162.042H66.5365V203.568H25.0052V162.042Z" fill="#CFCFCF"/>
</g>
<path d="M33.2552 202.479H58.9532L66.8959 178.036L46.1042 162.932L25.3125 178.036L33.2552 202.479ZM59.5209 204.042H32.6823C32.3438 204.042 32.0469 203.823 31.9375 203.5L23.6459 177.979C23.5417 177.656 23.6563 177.302 23.9323 177.104L45.6407 161.328C45.9167 161.13 46.2865 161.13 46.5625 161.328L68.2761 177.104C68.5521 177.302 68.6667 177.656 68.5625 177.979L60.2657 203.5C60.1615 203.823 59.8594 204.042 59.5209 204.042Z" fill="#E6E6E6"/>
<path d="M46.8855 183.875H45.3177V161.963H46.8855V183.875Z" fill="#E6E6E6"/>
<path d="M46.3177 184.63L45.8906 183.125L67.6042 176.984L68.0313 178.49L46.3177 184.63Z" fill="#E6E6E6"/>
<path d="M58.8802 203.708L45.4584 184.323L46.7448 183.432L60.1667 202.818L58.8802 203.708Z" fill="#E6E6E6"/>
<path d="M33.3281 203.708L32.0417 202.818L45.4584 183.432L46.7448 184.323L33.3281 203.708Z" fill="#E6E6E6"/>
<path d="M45.8907 184.63L24.1771 178.49L24.6042 176.984L46.3177 183.125L45.8907 184.63Z" fill="#E6E6E6"/>
<path d="M32.5417 180.088L36.4896 197.88L55.6875 197.708L63.2813 179.062L46.1771 168.474L32.5417 180.088ZM35.8594 199.453C35.4948 199.453 35.1771 199.198 35.099 198.838L30.9115 179.969C30.849 179.682 30.9479 179.39 31.1667 179.203L45.5938 166.911C45.8542 166.687 46.224 166.661 46.5156 166.838L64.6667 178.078C64.9896 178.281 65.125 178.687 64.9792 179.042L56.9427 198.781C56.8229 199.073 56.5417 199.265 56.224 199.265L35.8698 199.453C35.8646 199.453 35.8646 199.453 35.8594 199.453Z" fill="#E6E6E6"/>
<path d="M43.5625 187.641L52.25 192.37L54.3958 181.589L46.099 174.589L38.0261 181.36L43.5625 187.641ZM52.8125 194.354C52.6823 194.354 52.5521 194.318 52.4375 194.255L42.6927 188.948C42.6146 188.906 42.5417 188.849 42.4792 188.781L36.3177 181.797C36.1771 181.636 36.1094 181.427 36.125 181.219C36.1406 181.011 36.2396 180.813 36.4011 180.677L45.599 172.964C45.8906 172.719 46.3177 172.724 46.6094 172.969L55.7604 180.693C55.974 180.875 56.0781 181.162 56.0208 181.443L53.5781 193.724C53.5313 193.969 53.3698 194.172 53.1458 194.276C53.0417 194.328 52.9271 194.354 52.8125 194.354Z" fill="#E6E6E6"/>
<path d="M38.4167 181.276C38.4167 180.443 37.7396 179.766 36.9063 179.766C36.073 179.766 35.3959 180.443 35.3959 181.276C35.3959 182.109 36.073 182.786 36.9063 182.786C37.7396 182.786 38.4167 182.109 38.4167 181.276Z" fill="#E6E6E6"/>
<path d="M47.6146 173.568C47.6146 172.729 46.9375 172.057 46.1042 172.057C45.2708 172.057 44.5938 172.729 44.5938 173.568C44.5938 174.401 45.2708 175.078 46.1042 175.078C46.9375 175.078 47.6146 174.401 47.6146 173.568Z" fill="#E6E6E6"/>
<path d="M56.7656 181.489C56.7656 180.656 56.0886 179.979 55.2552 179.979C54.4167 179.979 53.7448 180.656 53.7448 181.489C53.7448 182.328 54.4167 183 55.2552 183C56.0886 183 56.7656 182.328 56.7656 181.489Z" fill="#E6E6E6"/>
<path d="M54.323 193.568C54.323 192.734 53.6459 192.057 52.8125 192.057C51.9792 192.057 51.3021 192.734 51.3021 193.568C51.3021 194.401 51.9792 195.078 52.8125 195.078C53.6459 195.078 54.323 194.401 54.323 193.568Z" fill="#E6E6E6"/>
<path d="M44.4167 188.495C44.4167 187.661 43.7396 186.984 42.9063 186.984C42.073 186.984 41.3959 187.661 41.3959 188.495C41.3959 189.328 42.073 190.005 42.9063 190.005C43.7396 190.005 44.4167 189.328 44.4167 188.495Z" fill="#E6E6E6"/>
<path d="M37.3698 198.672C37.3698 197.839 36.698 197.162 35.8594 197.162C35.0261 197.162 34.349 197.839 34.349 198.672C34.349 199.505 35.0261 200.182 35.8594 200.182C36.698 200.182 37.3698 199.505 37.3698 198.672Z" fill="#E6E6E6"/>
<path d="M33.073 179.766C33.073 178.932 32.3959 178.255 31.5625 178.255C30.7292 178.255 30.0521 178.932 30.0521 179.766C30.0521 180.599 30.7292 181.276 31.5625 181.276C32.3959 181.276 33.073 180.599 33.073 179.766Z" fill="#E6E6E6"/>
<path d="M47.6146 167.885C47.6146 167.047 46.9375 166.375 46.1042 166.375C45.2708 166.375 44.5938 167.047 44.5938 167.885C44.5938 168.719 45.2708 169.396 46.1042 169.396C46.9375 169.396 47.6146 168.719 47.6146 167.885Z" fill="#E6E6E6"/>
<path d="M65.7656 178.745C65.7656 177.911 65.0886 177.234 64.2552 177.234C63.4219 177.234 62.7448 177.911 62.7448 178.745C62.7448 179.578 63.4219 180.255 64.2552 180.255C65.0886 180.255 65.7656 179.578 65.7656 178.745Z" fill="#E6E6E6"/>
<path d="M57.4583 198.094C57.4583 197.261 56.7813 196.583 55.9479 196.583C55.1146 196.583 54.4375 197.261 54.4375 198.094C54.4375 198.932 55.1146 199.604 55.9479 199.604C56.7813 199.604 57.4583 198.932 57.4583 198.094Z" fill="#E6E6E6"/>
<mask id="mask13_452_9923" style="mask-type:luminance" maskUnits="userSpaceOnUse" x="68" y="174" width="4" height="5">
<path d="M68.1823 174.932H72V178.932H68.1823V174.932Z" fill="white"/>
</mask>
<g mask="url(#mask13_452_9923)">
<path d="M70.6875 178.541H70.0052C69.2865 178.541 68.7031 177.953 68.7031 177.234C68.7031 176.515 69.2865 175.927 70.0052 175.927H70.6875C71.4063 175.927 71.9896 176.515 71.9896 177.234C71.9896 177.953 71.4063 178.541 70.6875 178.541Z" fill="#E6E6E6"/>
</g>
<mask id="mask14_452_9923" style="mask-type:luminance" maskUnits="userSpaceOnUse" x="44" y="158" width="5" height="4">
<path d="M44.1823 158H48.1823V161.599H44.1823V158Z" fill="white"/>
</mask>
<g mask="url(#mask14_452_9923)">
<path d="M46.4219 160.62H45.7396C45.0209 160.62 44.4323 160.036 44.4323 159.312C44.4323 158.594 45.0209 158.01 45.7396 158.01H46.4219C47.1406 158.01 47.724 158.594 47.724 159.312C47.724 160.036 47.1406 160.62 46.4219 160.62Z" fill="#E6E6E6"/>
</g>
<mask id="mask15_452_9923" style="mask-type:luminance" maskUnits="userSpaceOnUse" x="20" y="174" width="5" height="5">
<path d="M20 174.932H24.1823V178.932H20V174.932Z" fill="white"/>
</mask>
<g mask="url(#mask15_452_9923)">
<path d="M21.9844 178.541H21.3021C20.5834 178.541 19.9948 177.953 19.9948 177.234C19.9948 176.515 20.5834 175.927 21.3021 175.927H21.9844C22.7031 175.927 23.2865 176.515 23.2865 177.234C23.2865 177.953 22.7031 178.541 21.9844 178.541Z" fill="#E6E6E6"/>
</g>
<mask id="mask16_452_9923" style="mask-type:luminance" maskUnits="userSpaceOnUse" x="29" y="204" width="5" height="3">
<path d="M29.5156 204.266H33.5156V207H29.5156V204.266Z" fill="white"/>
</mask>
<g mask="url(#mask16_452_9923)">
<path d="M32.0156 207.005H31.3333C30.6146 207.005 30.0312 206.422 30.0312 205.703C30.0312 204.979 30.6146 204.396 31.3333 204.396H32.0156C32.7344 204.396 33.3229 204.979 33.3229 205.703C33.3229 206.422 32.7344 207.005 32.0156 207.005Z" fill="#E6E6E6"/>
</g>
<mask id="mask17_452_9923" style="mask-type:luminance" maskUnits="userSpaceOnUse" x="57" y="204" width="6" height="3">
<path d="M57.5156 204.266H62.849V207H57.5156V204.266Z" fill="white"/>
</mask>
<g mask="url(#mask17_452_9923)">
<path d="M60.7084 207.005H60.0313C59.3073 207.005 58.724 206.422 58.724 205.703C58.724 204.979 59.3073 204.396 60.0313 204.396H60.7084C61.4323 204.396 62.0157 204.979 62.0157 205.703C62.0157 206.422 61.4323 207.005 60.7084 207.005Z" fill="#E6E6E6"/>
</g>
<rect x="0.5" y="0.5" width="91" height="226" rx="4.5" stroke="#9747FF" stroke-dasharray="10 5"/>
</svg>
