<?xml version="1.0" encoding="UTF-8"?>
<svg id="Layer_1" data-name="Layer 1" xmlns="http://www.w3.org/2000/svg" viewBox="0 0 102.07 35.84">
  <defs>
    <style>
      .cls-1 {
        fill: #4e7ebf;
      }

      .cls-2 {
        fill: #5c6673;
      }
    </style>
  </defs>
  <g id="Slogan">
    <path class="cls-2" d="m.59,29.24h.79v3.88l1.48-.03c.17,0,.34,0,.51,0l-.04.7H.59v-4.55Z"/>
    <path class="cls-2" d="m3.89,30.39c.16,0,.37-.01.64-.01s.49,0,.66.01l-.28.57-1.02.18c-.02-.25-.02-.5,0-.75Zm.43-.72c-.1-.09-.15-.2-.15-.35s.05-.27.15-.35c.1-.09.23-.13.4-.13s.31.04.41.13c.1.09.15.21.15.35s-.05.27-.15.35c-.1.09-.23.13-.41.13s-.3-.04-.4-.13Zm.11,3.46v-2.6l.76-.13v3.4h-.76v-.66Z"/>
    <path class="cls-2" d="m6.95,33.68c-.25-.14-.45-.35-.58-.63s-.2-.6-.2-.97.07-.68.21-.95.34-.48.6-.62c.26-.14.56-.21.91-.21.17,0,.34.02.53.06.18.04.37.11.56.2-.02.22-.05.44-.1.65-.18-.06-.3-.1-.35-.11-.11-.03-.22-.06-.31-.07s-.19-.02-.27-.02c-.2,0-.37.04-.52.13s-.26.21-.34.37c-.08.16-.12.36-.12.58,0,.24.04.44.12.61s.2.29.35.38c.15.09.33.13.54.13.14,0,.29-.02.46-.07.17-.04.33-.09.47-.15.03.12.05.28.08.48,0,.04.02.1.02.16-.19.09-.38.16-.58.21-.2.04-.39.07-.56.07-.34,0-.64-.07-.89-.22Z"/>
    <path class="cls-2" d="m10.37,33.67c-.25-.14-.45-.35-.58-.62-.14-.27-.2-.59-.2-.97s.07-.67.21-.95c.14-.27.33-.48.57-.63s.51-.22.82-.22.59.07.81.21c.22.14.39.34.51.6.12.25.17.54.17.87,0,.13,0,.25-.03.37h-2.28c.04.27.14.48.3.63.16.15.39.23.68.23.18,0,.37-.02.56-.06.19-.04.37-.09.53-.17.06.28.1.49.12.62-.18.09-.38.16-.6.21s-.45.08-.69.08c-.35,0-.64-.07-.9-.21Zm1.6-1.91c0-.18-.05-.33-.11-.45-.07-.12-.15-.21-.27-.27-.11-.06-.25-.09-.41-.09-.14,0-.26.03-.37.1s-.21.16-.29.29c-.08.13-.13.27-.15.43h1.6Z"/>
    <path class="cls-2" d="m13.72,31.1v-.7c.1,0,.2-.01.3-.01s.21,0,.33,0l.13.78v2.61h-.76v-2.69Zm2.15.23c-.04-.09-.09-.16-.16-.2s-.18-.06-.33-.06c-.16,0-.34.04-.52.11s-.37.16-.55.28l-.06-.5c.18-.14.36-.27.53-.36s.34-.17.5-.22c.16-.05.31-.08.46-.08.34,0,.58.09.73.27s.23.45.23.81v2.42h-.76v-2.07c0-.16-.02-.29-.05-.38Z"/>
    <path class="cls-2" d="m17.94,30.55c.2-.17.5-.26.9-.26.21,0,.42.02.63.06.21.04.4.1.58.19-.03.22-.07.42-.13.62-.21-.08-.4-.13-.56-.16-.16-.03-.32-.04-.49-.04-.15,0-.27.03-.35.09-.08.06-.12.14-.12.26,0,.08.02.15.05.2s.09.09.16.13c.08.04.2.07.35.11.31.08.56.17.73.27.17.1.29.22.36.36.07.14.1.3.1.49,0,.33-.12.58-.35.77-.24.19-.55.28-.96.28-.23,0-.45-.02-.68-.07-.22-.05-.43-.11-.62-.2l.13-.65c.19.08.37.14.56.18.19.04.37.06.54.06.19,0,.34-.03.44-.1.1-.06.15-.16.15-.27s-.04-.21-.12-.27c-.08-.06-.22-.11-.42-.15-.29-.07-.52-.15-.7-.25s-.31-.22-.38-.36c-.08-.14-.12-.32-.12-.52,0-.32.1-.57.3-.74Z"/>
    <path class="cls-2" d="m20.73,30.39c.16,0,.37-.01.64-.01s.49,0,.66.01l-.28.57-1.02.18c-.02-.25-.02-.5,0-.75Zm.43-.72c-.1-.09-.15-.2-.15-.35s.05-.27.15-.35c.1-.09.23-.13.4-.13s.31.04.41.13c.1.09.15.21.15.35s-.05.27-.15.35c-.1.09-.23.13-.41.13s-.3-.04-.4-.13Zm.11,3.46v-2.6l.76-.13v3.4h-.76v-.66Z"/>
    <path class="cls-2" d="m23.34,31.1v-.7c.1,0,.2-.01.3-.01s.21,0,.33,0l.13.78v2.61h-.76v-2.69Zm2.15.23c-.04-.09-.09-.16-.16-.2s-.18-.06-.33-.06c-.16,0-.34.04-.52.11s-.37.16-.55.28l-.06-.5c.18-.14.36-.27.53-.36s.34-.17.5-.22c.16-.05.31-.08.46-.08.34,0,.58.09.73.27s.23.45.23.81v2.42h-.76v-2.07c0-.16-.02-.29-.05-.38Z"/>
    <path class="cls-2" d="m27.68,33.28c-.25-.28-.37-.69-.37-1.23,0-.35.07-.67.2-.93.14-.27.33-.47.59-.62.26-.14.56-.22.91-.22.28,0,.55.04.8.12.25.08.48.18.69.3l-.43.5c-.18-.08-.36-.15-.54-.19-.17-.04-.35-.07-.52-.07-.19,0-.36.05-.49.14-.14.1-.24.23-.31.39-.07.16-.11.35-.11.55,0,.33.06.58.18.75.12.17.3.26.55.26.19,0,.38-.04.55-.11s.33-.17.46-.3l.18.5c-.16.15-.36.28-.62.4s-.51.18-.77.18c-.39,0-.7-.14-.95-.42Zm.49,1.86c-.21-.04-.41-.09-.6-.17l.15-.61c.19.06.37.1.54.13s.33.05.49.05c.22,0,.41-.03.55-.1.14-.07.25-.18.33-.33.08-.15.12-.35.12-.61v-2.69l.76-.1v2.8c0,.57-.15.99-.43,1.27-.29.28-.71.42-1.25.42-.22,0-.43-.02-.64-.06Z"/>
    <path class="cls-2" d="m34.39,30.39l.13.74v2.67h-.76v-3.39c.18-.02.39-.03.63-.01Zm1.3.91c-.03-.08-.07-.14-.13-.17-.06-.03-.14-.05-.24-.05-.13,0-.28.04-.45.11s-.33.16-.48.28l-.15-.5c.26-.22.51-.39.76-.5.24-.11.47-.17.67-.17.26,0,.47.08.62.24s.22.43.22.8v2.46h-.76v-2.15c0-.15-.02-.26-.05-.35Zm1.97.02c-.04-.09-.09-.16-.15-.19-.06-.03-.14-.05-.23-.05-.14,0-.29.04-.45.11-.16.07-.32.16-.47.28l-.13-.49c.24-.21.48-.38.71-.5.24-.12.46-.18.68-.18.27,0,.48.08.63.24.15.16.23.42.23.79v2.47h-.76v-2.08c0-.17-.02-.31-.06-.4Z"/>
    <path class="cls-2" d="m41.12,33.74c-.22.1-.42.14-.62.14-.3,0-.55-.09-.73-.27-.18-.18-.27-.44-.27-.79,0-.17.02-.34.07-.5s.11-.32.2-.47c.26-.02.54-.03.84-.03s.65.01,1.05.03v-.11h0c0-.17-.02-.3-.05-.4-.03-.1-.09-.19-.17-.25-.09-.06-.21-.09-.36-.09-.14,0-.33.02-.54.07-.22.04-.44.11-.68.19-.06-.21-.11-.41-.16-.62.28-.1.55-.18.81-.23s.48-.08.67-.08c.27,0,.49.04.67.12.18.08.32.21.42.39.1.18.15.43.15.74v2.23c-.09,0-.19.01-.3.01s-.21,0-.31-.01l-.08-.41c-.17.15-.36.27-.58.37Zm-.77-.62c.08.08.2.12.37.12.15,0,.3-.03.47-.1.16-.07.32-.16.48-.27v-.5c-.56-.03-1.02-.04-1.37-.02-.02.06-.04.13-.05.2-.01.07-.02.15-.02.22,0,.15.04.27.12.35Z"/>
    <path class="cls-2" d="m43.99,33.7c-.21-.13-.37-.33-.49-.59-.12-.26-.18-.58-.18-.97s.07-.71.21-.99c.14-.28.33-.49.57-.64.25-.15.52-.22.84-.22.18,0,.37.02.57.07.21.05.39.11.55.17v.65c-.15-.07-.31-.12-.49-.17-.18-.05-.33-.07-.44-.07-.22,0-.4.05-.55.14s-.26.23-.34.41c-.08.18-.12.41-.12.69,0,.31.07.55.21.73.14.18.33.27.58.27.12,0,.26-.03.42-.08.16-.05.32-.11.47-.19.01,0,.03-.01.04-.01l.11.49c-.17.15-.37.26-.6.36-.23.09-.44.14-.63.14-.27,0-.51-.07-.72-.2Zm1.76-.53v-4.28c.18-.02.31-.03.4-.03s.21,0,.37.03v4.89c-.1,0-.21.01-.33.01s-.22,0-.31-.01l-.13-.62Z"/>
    <path class="cls-2" d="m48.21,33.67c-.25-.14-.45-.35-.58-.62-.14-.27-.2-.59-.2-.97s.07-.67.21-.95.33-.48.57-.63.51-.22.82-.22.59.07.81.21c.22.14.39.34.51.6.12.25.17.54.17.87,0,.13,0,.25-.03.37h-2.28c.04.27.14.48.3.63.16.15.39.23.68.23.18,0,.37-.02.56-.06.19-.04.37-.09.53-.17.06.28.1.49.12.62-.18.09-.38.16-.6.21-.22.05-.45.08-.69.08-.35,0-.64-.07-.9-.21Zm1.6-1.91c0-.18-.05-.33-.11-.45-.07-.12-.15-.21-.27-.27-.11-.06-.25-.09-.41-.09-.14,0-.26.03-.38.1s-.21.16-.29.29-.13.27-.15.43h1.6Z"/>
    <path class="cls-2" d="m53.53,30.55c.2-.17.5-.26.9-.26.21,0,.42.02.63.06.21.04.4.1.58.19-.03.22-.07.42-.13.62-.21-.08-.4-.13-.56-.16-.16-.03-.32-.04-.49-.04-.15,0-.27.03-.35.09s-.12.14-.12.26c0,.08.02.15.05.2s.08.09.16.13c.08.04.2.07.35.11.31.08.55.17.73.27s.29.22.36.36c.07.14.1.3.1.49,0,.33-.12.58-.35.77-.24.19-.55.28-.96.28-.23,0-.45-.02-.68-.07-.22-.05-.43-.11-.62-.2l.13-.65c.19.08.37.14.56.18s.37.06.54.06c.19,0,.34-.03.44-.1.1-.06.15-.16.15-.27s-.04-.21-.12-.27c-.08-.06-.22-.11-.42-.15-.29-.07-.52-.15-.7-.25-.18-.1-.31-.22-.38-.36-.08-.14-.12-.32-.12-.52,0-.32.1-.57.3-.74Z"/>
    <path class="cls-2" d="m56.32,30.39c.16,0,.37-.01.64-.01s.49,0,.66.01l-.28.57-1.02.18c-.02-.25-.02-.5,0-.75Zm.43-.72c-.1-.09-.15-.2-.15-.35s.05-.27.15-.35c.1-.09.23-.13.4-.13s.31.04.41.13c.1.09.15.21.15.35s-.05.27-.15.35c-.1.09-.23.13-.41.13s-.3-.04-.4-.13Zm.11,3.46v-2.6l.76-.13v3.4h-.76v-.66Z"/>
    <path class="cls-2" d="m59.56,30.39l.13.74v2.67h-.76v-3.39c.18-.02.39-.03.63-.01Zm1.3.91c-.03-.08-.07-.14-.13-.17-.06-.03-.14-.05-.24-.05-.13,0-.28.04-.45.11-.17.07-.33.16-.48.28l-.15-.5c.26-.22.51-.39.76-.5.24-.11.47-.17.67-.17.26,0,.47.08.62.24s.22.43.22.8v2.46h-.76v-2.15c0-.15-.02-.26-.05-.35Zm1.97.02c-.04-.09-.09-.16-.15-.19-.06-.03-.14-.05-.23-.05-.14,0-.29.04-.45.11s-.32.16-.47.28l-.13-.49c.24-.21.48-.38.71-.5.24-.12.46-.18.68-.18.27,0,.48.08.63.24.15.16.23.42.23.79v2.47h-.76v-2.08c0-.17-.02-.31-.06-.4Z"/>
    <path class="cls-2" d="m65.6,30.87l.05.3v3.93h-.77v-4.7c.12,0,.23,0,.32,0s.19,0,.28,0h.04l.08.48Zm0,4.23h-.61v-.61h.61v.61Zm1.85-4.6c.2.14.36.34.47.59.11.26.17.57.17.93,0,.39-.07.72-.22,1-.15.28-.35.5-.61.64-.26.15-.56.22-.9.22-.18,0-.37-.03-.57-.09-.2-.06-.38-.13-.54-.21v-.64c.25.1.46.17.63.22.18.05.33.07.47.07.18,0,.34-.04.49-.14s.25-.23.34-.42c.08-.19.12-.41.12-.67,0-.21-.03-.4-.1-.55-.07-.15-.16-.27-.28-.34s-.26-.12-.41-.12c-.14,0-.31.03-.5.1s-.37.14-.53.23l-.1-.47c.2-.16.42-.3.65-.41.24-.11.48-.16.72-.16.26,0,.49.07.69.21Z"/>
    <path class="cls-2" d="m68.64,28.89c.2,0,.42-.01.66-.01s.46,0,.64.01l-.28.57c-.13.02-.25.04-.39.06-.13.02-.24.04-.33.06-.08.02-.19.04-.31.06-.02-.25-.02-.5,0-.76Zm.53,4.24v-4.1l.77-.14v4.9h-.77v-.66Z"/>
    <path class="cls-2" d="m71.77,33.67c-.25-.14-.45-.35-.58-.62-.14-.27-.2-.59-.2-.97s.07-.67.21-.95.33-.48.57-.63.51-.22.82-.22.59.07.81.21c.22.14.39.34.51.6.12.25.17.54.17.87,0,.13,0,.25-.03.37h-2.28c.04.27.14.48.3.63.16.15.39.23.68.23.18,0,.37-.02.56-.06.19-.04.37-.09.53-.17.06.28.1.49.12.62-.18.09-.38.16-.6.21-.22.05-.45.08-.69.08-.34,0-.64-.07-.9-.21Zm1.6-1.91c0-.18-.05-.33-.11-.45-.07-.12-.15-.21-.27-.27s-.25-.09-.41-.09c-.14,0-.26.03-.37.1-.12.07-.21.16-.29.29s-.13.27-.15.43h1.6Z"/>
  </g>
  <g id="Logo">
    <path class="cls-1" d="m15.73,28.16c-.46,0-.64-.29-.41-.93.7-1.83,2.81-5.8,4.76-8.79.73-1.13,1.42-2.18,2.06-3.13-.41-.03-.52-.12-.78-.38-.41-.41-.7-.96-.7-1.04s.09-.15.32-.2c.61-.12,1.45-.2,2.47-.29,2.84-4.09,5.05-6.85,7.05-8.79.58-.55.96-.7,1.33-.7.64,0,1.48.23,1.89.49.38.23.49.75.41,1.31-.17,1.28-.73,2.99-1.42,4.26-.29.44-.87.52-1.25.44-.2-.03-.44.03-.75-.09-.17-.06-.32-.23-.49-.58-.67.9-1.42,2.03-2.29,3.45h1.16c1.91,0,2.18.17,2.44.35.38.23.64.44.64.61,0,.12-.12.23-.44.26-1.71.15-3.42.32-4.84.46-2.47,3.92-6.41,9.89-8.03,11.78-.73.84-1.19,1.13-1.89,1.25-.44.09-.81.26-1.22.26Z"/>
    <path class="cls-1" d="m27.65,23.84c-.67-.46-.96-.84-.96-1.48,0-.99.64-2.06,2.03-3.92,1.77-2.38,2.99-4.26,3.36-4.99.09-.17.23-.23.58-.2.52.03,1.19.2,1.57.41.41.23.67.64.35,1.91,1.6-1.36,3.05-2.26,4.67-3.19.52-.29.78-.44.93-.44.23,0,.32.46.32.75s-.2.46-.55.73c-2.73,1.97-5.51,4.61-8.85,9.17-1.25,1.71-1.42,1.89-1.89,1.89-.44,0-.93-.2-1.57-.64Z"/>
    <path class="cls-1" d="m36.39,23.55c-.58-.32-.93-.7-1.28-1.28-.67-1.1-.44-2.78,1.28-4.82,1.42-1.71,3.39-3.1,5.4-3.74.64-.2,1.16-.26,1.8-.12.7.17,1.45.75,1.91,1.39.23-.06.55-.06.84.12.58.32,1.57,1.16,1.94,1.65.09.15.09.44-.12.67-1.13,1.33-2.03,3.07-2.49,4.76,1.31-.23,2.67-1.13,4.61-3.74l.09-.12c.2-.26.26-.29.35-.2l.09.09c.2.2.17.35.06.55l-.09.15c-1.04,1.74-4.29,5.45-7.31,5.45-1.31,0-1.8-1.07-1.54-2.73-1.19,1.36-2.23,2.26-3.05,2.61-.73.32-1.36.29-2.49-.7Zm6.56-4.93c.52-.99,1.13-2,1.65-2.76-3.25,1.04-6.15,4.29-6.09,6.5,1.48-.64,3.05-1.91,4.44-3.74Z"/>
    <path class="cls-1" d="m55.7,23.63c-.41-.64-.41-1.33-.15-1.97.9-2.03,2.12-3.39,2.52-4.47-1.51.9-3.54,2.7-5.95,6.06-.55.75-.9,1.02-1.19,1.02-.38,0-1.04-.23-1.74-.41-.58-.15-.99-.58-.99-1.19,0-.9.67-2.26,2.15-4.24,3.1-4.12,3.74-4.93,4.32-4.93.32,0,.9.26,1.39.61.78.55.99.73.99,1.25,0,.32-.2.87-.58,1.68,1.13-1.04,2.06-1.8,2.73-2.2.61-.38,1.02-.52,1.33-.52.35,0,.84.23,1.51.73.58.41.7,1.16.09,2.47-.73,1.51-2.12,3.25-3.05,5.19,1.13-.03,3.19-1.57,5.19-4.26l.09-.12c.2-.26.26-.29.35-.2l.09.09c.2.2.17.35.06.55l-.09.15c-1.07,1.77-4.44,5.86-6.93,5.86-.93,0-1.8-.58-2.15-1.13Z"/>
    <path class="cls-1" d="m63.81,23.34c-.7-.67-1.1-1.45-1.1-2.58s.73-2.67,2.61-4.47c1.86-1.74,4.26-2.7,6.24-2.7.58,0,.84.23,1.19.87,2.44-3.89,4.87-7.17,6.44-10.18.2-.35.35-.41.61-.29.73.29,1.45.7,1.83.96.78.55.67,1.68-.03,2.96-1.16,2.15-3.34,4.99-5.37,8.47-2,3.42-2.76,5.16-2.38,6.03,1.16-.32,2.35-1.36,4.29-3.97l.09-.12c.2-.26.26-.29.35-.2l.09.09c.2.2.17.38.06.55l-.09.15c-2.09,3.48-4.12,5.31-6.12,5.31-.73,0-1.33-.29-1.97-1.25-.26-.41-.44-.87-.46-1.45-.9,1.19-1.83,2.15-2.76,2.64-1.22.7-2.18.44-3.51-.81Zm6.73-4.55c.26-.78.67-1.68,1.22-2.67-2.64.73-5.66,4.23-5.86,6.29,1.48-.17,2.79-1.02,4.64-3.63Z"/>
    <path class="cls-1" d="m76.13,23.98c-.41-.52-.64-.99-.64-1.51,0-.87.44-2.15,1.65-4.03,4.26-6.56,7.34-11.02,9.63-14.24.23-.32.38-.38.75-.15.29.17.7.46,1.07.75.67.55,1.04,1.13-.17,3.1-1.39,2.29-5.8,8.96-7.48,11.43-1.28,1.91-1.77,2.99-1.83,3.63,1.57-.26,3.36-1.39,5.71-4.53l.09-.12c.2-.26.26-.29.35-.2l.09.09c.2.2.17.35.06.55l-.09.15c-1.22,2.03-4.21,6.09-7.16,6.09-1.04,0-1.57-.41-2.03-1.02Z"/>
    <path class="cls-1" d="m76.44,31.81c-.73-1.04-.7-2.79.93-4.24,1.97-1.74,5.54-2.76,9.2-3.36.7-1.04,1.45-2.2,2.23-3.51-1.22,1.31-2.23,2.09-2.61,2.35-.81.52-1.42.7-1.77.7-.55,0-1.16-.23-1.83-.96-.61-.67-.41-1.54,1.33-4.35,1.39-2.23,2.06-3.83,2.23-4.61.06-.32.2-.44.44-.44.35,0,.78.09,1.28.29,1.25.52,1.57,1.36.72,3.31-.49,1.16-1.22,2.55-1.68,3.65,1.31-.78,2.93-2.32,5.11-5.31.7-.96.84-1.13,1.13-1.13s.7.2,1.25.38c.99.32,1.33.9.87,1.74-.96,1.83-2.64,4.61-4.47,7.43,1.8-.17,3.45-.23,4.64-.23.23,0,.35.09.29.2-.14.26-.29.38-.46.64s-.52.38-.93.41c-1.59.12-3.1.29-4.55.49-3.6,5.13-7.37,7.95-10.65,7.95-1.22,0-2.18-.61-2.7-1.39Zm1.62-.84c2.06.03,4.38-1.45,7.08-4.87-2.38.64-4.29,1.45-5.51,2.44-.96.75-1.65,1.62-1.57,2.44Z"/>
  </g>
</svg>