<svg width="40" height="40" viewBox="0 0 40 40" fill="none" xmlns="http://www.w3.org/2000/svg">
<mask id="mask0_448_9797" style="mask-type:luminance" maskUnits="userSpaceOnUse" x="0" y="0" width="20" height="20">
<path d="M0 0H19.9688V19.5573H0V0Z" fill="white"/>
</mask>
<g mask="url(#mask0_448_9797)">
<path d="M14 18.7814H4.84375C2.17188 18.7814 0 16.6147 0 13.9585V4.8335C0 2.17204 2.17188 0.00537109 4.84375 0.00537109H14C16.6719 0.00537109 18.8438 2.17204 18.8438 4.8335V13.9585C18.8438 16.6147 16.6719 18.7814 14 18.7814Z" fill="#AFCEE4"/>
</g>
<mask id="mask1_448_9797" style="mask-type:luminance" maskUnits="userSpaceOnUse" x="19" y="0" width="21" height="20">
<path d="M19.9688 0H40V19.5573H19.9688V0Z" fill="white"/>
</mask>
<g mask="url(#mask1_448_9797)">
<path d="M35.1614 18.7814H26C23.3333 18.7814 21.1614 16.6147 21.1614 13.9585V4.8335C21.1614 2.17204 23.3333 0.00537109 26 0.00537109H35.1614C37.8281 0.00537109 40 2.17204 40 4.8335V13.9585C40 16.6147 37.8281 18.7814 35.1614 18.7814Z" fill="#AFCEE4"/>
</g>
<mask id="mask2_448_9797" style="mask-type:luminance" maskUnits="userSpaceOnUse" x="0" y="20" width="20" height="20">
<path d="M0 20.8906H19.9688V40H0V20.8906Z" fill="white"/>
</mask>
<g mask="url(#mask2_448_9797)">
<path d="M14 39.9948H4.84375C2.17188 39.9948 0 37.8281 0 35.1719V26.0417C0 23.3854 2.17188 21.2188 4.84375 21.2188H14C16.6719 21.2188 18.8438 23.3854 18.8438 26.0417V35.1719C18.8438 37.8281 16.6719 39.9948 14 39.9948Z" fill="#AFCEE4"/>
</g>
<mask id="mask3_448_9797" style="mask-type:luminance" maskUnits="userSpaceOnUse" x="19" y="20" width="21" height="20">
<path d="M19.9688 20.8906H40V40H19.9688V20.8906Z" fill="white"/>
</mask>
<g mask="url(#mask3_448_9797)">
<path d="M35.1614 39.9948H26C23.3333 39.9948 21.1614 37.8281 21.1614 35.1719V26.0417C21.1614 23.3854 23.3333 21.2188 26 21.2188H35.1614C37.8281 21.2188 40 23.3854 40 26.0417V35.1719C40 37.8281 37.8281 39.9948 35.1614 39.9948Z" fill="#AFCEE4"/>
</g>
<path d="M12.3125 8.43752L10.4219 8.42189L10.4375 6.53127C10.4427 5.9896 10.0052 5.5469 9.46357 5.54169C8.91669 5.53127 8.46878 5.96877 8.46357 6.51044L8.44794 8.40106L6.55211 8.38023C6.5469 8.38023 6.54169 8.38023 6.53648 8.38023C6.00003 8.38023 5.55732 8.81773 5.55211 9.35419C5.5469 9.89585 5.9844 10.3438 6.53128 10.349L8.42711 10.3698L8.40628 12.2552C8.40107 12.7969 8.83857 13.2448 9.38544 13.25C9.38544 13.25 9.39065 13.25 9.39586 13.25C9.93753 13.2448 10.375 12.8125 10.3802 12.2761L10.4011 10.3854L12.2917 10.4063C12.2969 10.4063 12.3021 10.4063 12.3073 10.4063C12.849 10.4063 13.2865 9.97398 13.2917 9.43231C13.2969 8.89064 12.8594 8.44794 12.3125 8.43752Z" fill="black"/>
<path d="M10.8177 30.6095L12.1615 29.2762C12.5469 28.896 12.5469 28.271 12.1615 27.8856C11.7761 27.5002 11.1511 27.5002 10.7656 27.8856L9.4271 29.2137L8.08856 27.8804C8.08335 27.8752 8.08335 27.87 8.07814 27.87C7.69273 27.495 7.07294 27.495 6.69273 27.8752C6.30731 28.2606 6.30731 28.8804 6.68752 29.2658L8.02606 30.6043L6.68231 31.9377C6.2969 32.3179 6.2969 32.9429 6.68231 33.3283C6.68752 33.3335 6.68752 33.3335 6.69273 33.3387C7.07814 33.7137 7.69794 33.7085 8.07814 33.3283L9.42189 32.0002L10.7552 33.3335C10.7604 33.3387 10.7656 33.3439 10.7656 33.3439C11.1511 33.7189 11.7709 33.7189 12.1511 33.3387C12.5417 32.9533 12.5417 32.3335 12.1563 31.9481L10.8177 30.6095Z" fill="black"/>
<path d="M33.1823 10.3752C33.1823 10.3752 33.1771 10.3752 33.1719 10.3752L27.4063 10.3647C26.8646 10.3647 26.4219 9.92204 26.4219 9.38037C26.4219 8.8387 26.8594 8.4012 27.3958 8.396C27.401 8.396 27.4063 8.396 27.4115 8.396L33.1719 8.40641C33.7187 8.40641 34.1615 8.84912 34.1615 9.39079C34.1615 9.93245 33.724 10.3647 33.1823 10.3752Z" fill="black"/>
<path d="M33.1927 31.4639C33.1875 31.4639 33.1823 31.4639 33.1823 31.4639L27.9792 31.4482C27.4844 31.4482 27.0886 31.0055 27.0886 30.4639C27.0886 29.9222 27.4792 29.4899 27.9688 29.4795C27.9688 29.4795 27.974 29.4795 27.9792 29.4795L33.1823 29.5003C33.6719 29.5003 34.0729 29.943 34.0729 30.4847C34.0729 31.0212 33.6771 31.4587 33.1927 31.4639Z" fill="black"/>
<path d="M31.9375 27.4635C31.9375 27.6406 31.901 27.8125 31.8333 27.9792C31.7656 28.1458 31.6666 28.2917 31.5364 28.4167C31.4114 28.5417 31.2656 28.6406 31.0989 28.7083C30.9323 28.776 30.7604 28.8125 30.5781 28.8125C30.401 28.8125 30.2291 28.776 30.0625 28.7083C29.8958 28.6406 29.75 28.5417 29.6198 28.4167C29.4948 28.2917 29.3958 28.1458 29.3281 27.9792C29.2604 27.8125 29.2239 27.6406 29.2239 27.4635C29.2239 27.2812 29.2604 27.1094 29.3281 26.9427C29.3958 26.7813 29.4948 26.6354 29.6198 26.5052C29.75 26.3802 29.8958 26.2812 30.0625 26.2135C30.2291 26.1458 30.401 26.1094 30.5781 26.1094C30.7604 26.1094 30.9323 26.1458 31.0989 26.2135C31.2656 26.2812 31.4114 26.3802 31.5364 26.5052C31.6666 26.6354 31.7656 26.7813 31.8333 26.9427C31.901 27.1094 31.9375 27.2812 31.9375 27.4635Z" fill="black"/>
<path d="M31.9375 33.7503C31.9375 33.9326 31.901 34.1045 31.8333 34.2712C31.7656 34.4326 31.6666 34.5785 31.5364 34.7087C31.4114 34.8337 31.2656 34.9326 31.0989 35.0003C30.9323 35.068 30.7604 35.1045 30.5781 35.1045C30.401 35.1045 30.2291 35.068 30.0625 35.0003C29.8958 34.9326 29.75 34.8337 29.6198 34.7087C29.4948 34.5785 29.3958 34.4326 29.3281 34.2712C29.2604 34.1045 29.2239 33.9326 29.2239 33.7503C29.2239 33.5732 29.2604 33.4014 29.3281 33.2347C29.3958 33.068 29.4948 32.9222 29.6198 32.7972C29.75 32.6722 29.8958 32.5732 30.0625 32.5055C30.2291 32.4378 30.401 32.4014 30.5781 32.4014C30.7604 32.4014 30.9323 32.4378 31.0989 32.5055C31.2656 32.5732 31.4114 32.6722 31.5364 32.7972C31.6666 32.9222 31.7656 33.068 31.8333 33.2347C31.901 33.4014 31.9375 33.5732 31.9375 33.7503Z" fill="black"/>
<rect width="40" height="40" stroke="black"/>
</svg>
