<svg width="42" height="43" viewBox="0 0 42 43" fill="none" xmlns="http://www.w3.org/2000/svg">
<mask id="mask0_452_9909" style="mask-type:luminance" maskUnits="userSpaceOnUse" x="0" y="0" width="42" height="43">
<path d="M0 0.770508H41.6406V42.6559H0V0.770508Z" fill="white"/>
</mask>
<g mask="url(#mask0_452_9909)">
<path d="M0 0.770508V9.45801H12.2604V0.770508H0ZM14.4063 0.770508V9.45801H26.6667V0.770508H14.4063ZM28.8125 0.770508V9.45801H41.0729V0.770508H28.8125ZM14.4063 11.6038V20.2913H26.6667V11.6038H14.4063ZM0 22.4372V31.1247H12.2604V22.4372H0ZM14.4063 22.4372V31.1247H26.6667V22.4372H14.4063ZM28.8125 22.4372V31.1247H41.0729V22.4372H28.8125ZM0 33.2705V41.958H12.2604V33.2705H0ZM28.8125 33.2705V41.958H41.0729V33.2705H28.8125Z" fill="#E6E6E6"/>
</g>
<mask id="mask1_452_9909" style="mask-type:luminance" maskUnits="userSpaceOnUse" x="0" y="10" width="42" height="33">
<path d="M0 10.6558H41.6406V42.6558H0V10.6558Z" fill="white"/>
</mask>
<g mask="url(#mask1_452_9909)">
<path d="M0 11.6035V20.291H12.2604V11.6035H0ZM28.8125 11.6035V20.291H41.0729V11.6035H28.8125ZM14.4063 33.2702V41.9577H26.6667V33.2702H14.4063Z" fill="#CFCFCF"/>
</g>
</svg>
