<svg width="42" height="43" viewBox="0 0 42 43" fill="none" xmlns="http://www.w3.org/2000/svg">
<mask id="mask0_452_9896" style="mask-type:luminance" maskUnits="userSpaceOnUse" x="0" y="0" width="42" height="43">
<path d="M0 0.885254H41.6406V42.7707H0V0.885254Z" fill="white"/>
</mask>
<g mask="url(#mask0_452_9896)">
<path d="M0 0.885254V9.57275H12.2604V0.885254H0ZM14.4063 0.885254V9.57275H26.6667V0.885254H14.4063ZM28.8125 0.885254V9.57275H41.0729V0.885254H28.8125ZM14.4063 11.7186V20.4061H26.6667V11.7186H14.4063ZM0 22.5519V31.2394H12.2604V22.5519H0ZM14.4063 22.5519V31.2394H26.6667V22.5519H14.4063ZM28.8125 22.5519V31.2394H41.0729V22.5519H28.8125ZM0 33.3853V42.0728H12.2604V33.3853H0ZM28.8125 33.3853V42.0728H41.0729V33.3853H28.8125Z" fill="#AFCEE4"/>
</g>
<mask id="mask1_452_9896" style="mask-type:luminance" maskUnits="userSpaceOnUse" x="0" y="10" width="42" height="33">
<path d="M0 10.7705H41.6406V42.7705H0V10.7705Z" fill="white"/>
</mask>
<g mask="url(#mask1_452_9896)">
<path d="M0 11.7183V20.4058H12.2604V11.7183H0ZM28.8125 11.7183V20.4058H41.0729V11.7183H28.8125ZM14.4063 33.3849V42.0724H26.6667V33.3849H14.4063Z" fill="black"/>
</g>
</svg>
