<svg width="41" height="41" viewBox="0 0 41 41" fill="none" xmlns="http://www.w3.org/2000/svg">
<mask id="mask0_448_9771" style="mask-type:luminance" maskUnits="userSpaceOnUse" x="0" y="0" width="41" height="41">
<path d="M0 0H41V41H0V0Z" fill="white"/>
</mask>
<g mask="url(#mask0_448_9771)">
<path d="M0 0H41V41H0V0Z" fill="#AFCEE4"/>
</g>
<mask id="mask1_448_9771" style="mask-type:luminance" maskUnits="userSpaceOnUse" x="7" y="4" width="31" height="31">
<path d="M7.25519 4.15625H37.2552V34.1563H7.25519V4.15625Z" fill="white"/>
</mask>
<g mask="url(#mask1_448_9771)">
<path d="M35.6511 21.8123C35.2604 21.8071 34.9323 21.9425 34.6563 22.2186L29.5938 27.203V8.49984C29.5938 8.35401 29.5469 8.23421 29.4427 8.13525C29.3438 8.03109 29.224 7.98421 29.0781 7.98421H23.8854V7.21859C23.8854 7.07275 23.8334 6.95296 23.7344 6.854C23.6302 6.74984 23.5104 6.70296 23.3698 6.70296H21.1979C21.1719 6.35921 21.0886 6.03109 20.9375 5.7238C20.7865 5.4113 20.5886 5.14046 20.3334 4.90609C20.0834 4.67171 19.7969 4.49463 19.4792 4.36963C19.1563 4.24463 18.8229 4.18213 18.4792 4.18213C18.1354 4.18213 17.8073 4.24463 17.4844 4.36963C17.1667 4.49463 16.8802 4.67171 16.625 4.90609C16.375 5.14046 16.1771 5.4113 16.0261 5.7238C15.875 6.03109 15.7865 6.35921 15.7604 6.70296H13.5938C13.4531 6.70296 13.3281 6.74984 13.2292 6.854C13.1302 6.95296 13.0781 7.07275 13.0781 7.21859V7.99463H7.89065C7.74481 7.99463 7.62502 8.04671 7.52085 8.15088C7.4219 8.24984 7.36981 8.36963 7.36981 8.51546V33.6405C7.36981 33.7811 7.4219 33.9009 7.52085 34.005C7.62502 34.104 7.74481 34.1561 7.89065 34.1561H29.1146C29.2604 34.1561 29.3802 34.104 29.4792 34.005C29.5834 33.9009 29.6302 33.7811 29.6302 33.6405V31.1457L36.6459 24.2134C36.8438 24.0155 36.974 23.7759 37.0313 23.4946C37.0886 23.2186 37.0625 22.9478 36.9531 22.6821C36.8438 22.4217 36.6719 22.2082 36.4323 22.0519C36.1979 21.8957 35.9375 21.8123 35.6511 21.8123ZM14.1146 8.49984V7.71859H16.4844C16.5209 7.70817 16.5521 7.68734 16.5834 7.6665L16.6459 7.61442L16.7084 7.5363C16.7604 7.46859 16.7813 7.39046 16.7813 7.30713C16.7813 7.27067 16.7813 7.23421 16.7813 7.20296C16.7813 7.20296 16.7813 7.1665 16.7813 7.15088C16.7761 7.07796 16.7761 7.01025 16.7813 6.93734C16.7813 6.70817 16.8229 6.48942 16.9115 6.27588C17 6.06234 17.125 5.88005 17.2865 5.71338C17.4479 5.55192 17.6354 5.42692 17.849 5.33838C18.0573 5.25505 18.2813 5.20817 18.5104 5.20817C18.7396 5.20817 18.9584 5.25505 19.1719 5.33838C19.3854 5.42692 19.5729 5.55192 19.7344 5.71338C19.8959 5.88005 20.0209 6.06234 20.1094 6.27588C20.1979 6.48942 20.2396 6.70817 20.2396 6.93734C20.2448 7.01025 20.2448 7.07796 20.2396 7.15088C20.2292 7.23942 20.2396 7.32796 20.2761 7.4113C20.3125 7.51025 20.3698 7.58317 20.4584 7.63525L20.5365 7.67692L20.6302 7.70817H22.9115V9.36963H14.1302L14.1146 8.49984ZM11.1979 13.9113H25.8021C25.9636 13.8644 26.1146 13.8957 26.25 13.9998C26.3854 14.0988 26.4531 14.2394 26.4531 14.4061C26.4531 14.578 26.3854 14.7134 26.25 14.8175C26.1146 14.9217 25.9636 14.953 25.8021 14.9061H11.1979C10.9427 14.8384 10.8177 14.6717 10.8177 14.4061C10.8177 14.1457 10.9427 13.979 11.1979 13.9113ZM11.1979 18.4894H25.8021C25.9636 18.4425 26.1146 18.4738 26.25 18.578C26.3854 18.6821 26.4531 18.8175 26.4531 18.9894C26.4531 19.1561 26.3854 19.2967 26.25 19.3957C26.1146 19.4998 25.9636 19.5311 25.8021 19.4842H11.1979C10.9427 19.4165 10.8177 19.2498 10.8177 18.9894C10.8177 18.7238 10.9427 18.5571 11.1979 18.4894ZM11.1979 23.0675H25.8021C25.9636 23.0259 26.1146 23.0519 26.25 23.1561C26.3854 23.2603 26.4531 23.3957 26.4531 23.5675C26.4531 23.7394 26.3854 23.8748 26.25 23.979C26.1146 24.0832 25.9636 24.1092 25.8021 24.0675H11.1979C10.9427 23.9946 10.8177 23.8332 10.8177 23.5675C10.8177 23.3071 10.9427 23.1405 11.1979 23.0675ZM11.1979 28.6509C10.9375 28.5884 10.8073 28.4165 10.8073 28.1509C10.8073 27.88 10.9375 27.7134 11.1979 27.6509H23.2604L23.2917 27.6873L24.2031 28.6509H11.1979ZM35.9479 23.4894L28.7709 30.5728L28.375 30.9582C28.3021 31.0415 28.2031 31.078 28.0938 31.078H28.0417C27.9479 31.0675 27.8698 31.0259 27.8021 30.953L24.8073 27.7967L24.0365 26.9998C23.9584 26.9165 23.9167 26.8228 23.9219 26.7082C23.9271 26.5988 23.9636 26.505 24.0469 26.4321C24.125 26.3488 24.2188 26.3123 24.3334 26.3175C24.4479 26.3228 24.5417 26.3644 24.6198 26.4478L27.7136 29.7394C27.8125 29.8384 27.9323 29.8905 28.0729 29.8957C28.2136 29.9009 28.3281 29.8488 28.4271 29.7498L29.3698 28.8228L29.4011 28.7967L29.4636 28.7342L35.3802 22.9321C35.4479 22.8384 35.5365 22.7967 35.6511 22.7967C35.7656 22.7967 35.8594 22.8384 35.9375 22.9217C36.0156 22.9946 36.0573 23.0936 36.0573 23.203C36.0625 23.3175 36.0261 23.4165 35.9479 23.505V23.4894Z" fill="black"/>
</g>
<rect width="41" height="41" stroke="#AFCEE4"/>
</svg>
